<svg width="793" height="224" viewBox="0 0 793 224" fill="none" xmlns="http://www.w3.org/2000/svg">
<path d="M792 0H1V224H792V0Z" fill="#C7C7C7"/>
<path d="M127.5 41C-106.5 95 36 154.833 136.5 178C380 237 552 202.5 569 201.5C586 200.5 576 185 586 180C596 175 638 189 714 180C863 102 756.5 59.5 729 53.5C701.5 47.5 653.5 41 602.5 27C551.5 13 300.5 2 127.5 41Z" fill="#696969" stroke="#696969"/>
<path d="M97 102.5C100.6 112.1 135.833 126.167 153 132C160.5 137 294.5 158 313 160.5C331.5 163 414.5 166.5 444 168C473.5 169.5 505.5 163.5 516.5 158.5C527.5 153.5 539.5 136.5 560.5 136.5C631.5 156.5 670.5 137 713.5 114.5C747.9 96.5 727.833 82.3333 713.5 77.5C704.333 75.1667 679.2 67.4 652 55C618 39.5 542 32 501.5 24.5C461 17 333 22.5 325 22C317 21.5 257 29 246 29.5C235 30 188 43.5 174.5 44.5C161 45.5 116.5 69 104 77C91.5 85 92.5 90.5 97 102.5Z" fill="#4A4A4A" stroke="#4A4A4D"/>
<path d="M188 90.5C190.4 93.3 204.667 99.6667 211.5 102.5C227 105.833 259.3 112.8 264.5 114C271 115.5 308 118.5 313 119C318 119.5 351 127 359 130C367 133 428 133.5 444 134C460 134.5 490.5 126.5 492.5 116.5C494.5 106.5 536 115 543.5 117.5C549.5 119.5 562.333 119.333 568 119C574.833 119.5 588.3 118.8 587.5 112C582.5 96 580 103 585 99C590 95 624.5 96 643.5 90C662.5 84 644 75 641 74C638 73 618 61.5 615 59C612 56.5 593.5 52 587.5 49.5C581.5 47 525 37 517 35.5C510.6 34.3 475 30.6667 458 29C442.5 28.6667 405.5 27.9 381.5 27.5C351.5 27 325 32.5 317 33.5C309 34.5 244 48 239 49.5C234 51 204 61.5 191.5 69C179 76.5 185 87 188 90.5Z" fill="#393939" stroke="#393939"/>
<path d="M293.5 55C257.5 66.2 279.167 78.6667 294.5 83.5C320.667 88.1667 374.4 97.9 380 99.5C387 101.5 426 99.5 449 98.5C472 97.5 475.5 93 475 92C474.5 91 473.5 90 476.5 87.5C479.5 85 533 93 554.5 91C571.7 89.4 567.667 84 563.5 81.5C555.5 81.6667 541 79.2 547 68C554.5 54 531.5 52.5 520.5 53C509.5 53.5 477.5 41 470 39C462.5 37 405.5 36 401.5 36C397.5 36 338.5 41 293.5 55Z" fill="#2D2D2D"/>
<path d="M437.722 76.2019C432.922 78.2019 414.055 78.7019 405.222 78.7019C392.055 76.0352 364.422 70.2019 359.222 68.2019C352.722 65.7019 353.222 60.7019 355.722 56.7019C358.222 52.7019 379.722 51.2019 387.722 48.2019C395.722 45.2019 441.222 48.7019 443.722 49.2019C446.222 49.7019 473.722 55.7019 477.222 57.7019C480.722 59.7019 478.222 64.7019 477.222 66.7019C476.222 68.7019 464.222 71.7019 460.222 72.2019C456.222 72.7019 443.722 73.7019 437.722 76.2019Z" fill="#292929"/>
</svg>
